<?xml version="1.0" encoding="UTF-8"?> <svg xmlns="http://www.w3.org/2000/svg" viewBox="0 0 80 80"><defs><style>.cls-1,.cls-4{fill:#fff;}.cls-1,.cls-2,.cls-5{stroke:#333;stroke-width:2px;}.cls-1,.cls-2{stroke-linecap:round;stroke-linejoin:round;}.cls-2,.cls-5,.cls-7{fill:none;}.cls-3{fill:#d4ead8;}.cls-5{stroke-miterlimit:10;}.cls-6{fill:#34a551;}</style></defs><title>cloud-APIs</title><g id="cloud-APIs"><path class="cls-1" d="M54.67,50.94H56.5a12.83,12.83,0,0,0,2-25.5A20.17,20.17,0,0,0,20.34,29a11,11,0,0,0,1.33,21.92h33Z"></path><rect id="_Trazado_" data-name="&lt;Trazado&gt;" class="cls-1" x="3" y="8" width="74" height="64" rx="4" ry="4"></rect><path class="cls-2" d="M54.67,50.94H56.5a12.83,12.83,0,0,0,2-25.5A20.17,20.17,0,0,0,20.34,29a11,11,0,0,0,1.33,21.92h33Z"></path><path class="cls-3" d="M67,45.88a1.13,1.13,0,0,0-.89-1.09l-4.22-.89a1.12,1.12,0,0,1-.82-.74,12.51,12.51,0,0,0-.55-1.31,1.13,1.13,0,0,1,.07-1.11l2.33-3.53a1.14,1.14,0,0,0-.15-1.42l-2.81-2.74a1.1,1.1,0,0,0-1.39-.14L55,35.23a1.13,1.13,0,0,1-1.1.06,12.75,12.75,0,0,0-1.21-.49,1.12,1.12,0,0,1-.74-.85l-.79-4.11a1.12,1.12,0,0,0-1.1-.91H46.1a1.12,1.12,0,0,0-1.1.87L44.06,34a1.13,1.13,0,0,1-.73.81,12.74,12.74,0,0,0-1.32.56,1.14,1.14,0,0,1-1.13-.06L37.35,33a1.12,1.12,0,0,0-1.42.14l-2.77,2.78A1.12,1.12,0,0,0,33,37.26l2.41,3.79a1.12,1.12,0,0,1,.07,1.08A12.3,12.3,0,0,0,35,43.37a1.15,1.15,0,0,1-.84.76L29.82,45a1.12,1.12,0,0,0-.89,1.11l0,3.93a1.11,1.11,0,0,0,.89,1.08l4.53,1a1.1,1.1,0,0,1,.81.71c.13.33.27.67.43,1a1.13,1.13,0,0,1-.07,1.11l-2.51,3.81a1.12,1.12,0,0,0,.15,1.42L36,62.88A1.1,1.1,0,0,0,37.4,63l3.93-2.55a1.09,1.09,0,0,1,1.09-.07l.8.33a1.12,1.12,0,0,1,.72.84l.87,4.52a1.12,1.12,0,0,0,1.1.91h3.92a1.12,1.12,0,0,0,1.1-.88l1-4.5a1.17,1.17,0,0,1,.74-.82,9.63,9.63,0,0,0,1-.43,1.15,1.15,0,0,1,1.11.08L58.58,63A1.12,1.12,0,0,0,60,62.84l2.77-2.79a1.12,1.12,0,0,0,.15-1.39l-2.4-3.76a1.11,1.11,0,0,1-.05-1.1c.19-.42.37-.84.53-1.28a1.14,1.14,0,0,1,.83-.73l4.27-.87a1.12,1.12,0,0,0,.9-1.11ZM48,55.39A7.43,7.43,0,1,1,55.39,48,7.42,7.42,0,0,1,48,55.39Z"></path><circle class="cls-4" cx="47.96" cy="47.96" r="7.43"></circle><path class="cls-5" d="M61.83,51.79l4.27-.87a1.12,1.12,0,0,0,.9-1.11l0-3.93a1.13,1.13,0,0,0-.89-1.09l-4.22-.89a1.12,1.12,0,0,1-.82-.74,12.51,12.51,0,0,0-.55-1.31,1.13,1.13,0,0,1,.07-1.11l2.33-3.53a1.14,1.14,0,0,0-.15-1.42l-2.81-2.74a1.1,1.1,0,0,0-1.39-.14L55,35.23a1.13,1.13,0,0,1-1.1.06,12.75,12.75,0,0,0-1.21-.49,1.12,1.12,0,0,1-.74-.85l-.79-4.11a1.12,1.12,0,0,0-1.1-.91H46.1a1.12,1.12,0,0,0-1.1.87L44.06,34a1.13,1.13,0,0,1-.73.81,12.74,12.74,0,0,0-1.32.56,1.14,1.14,0,0,1-1.13-.06L37.35,33a1.12,1.12,0,0,0-1.42.14l-2.77,2.78A1.12,1.12,0,0,0,33,37.26l2.41,3.79a1.12,1.12,0,0,1,.07,1.08A12.3,12.3,0,0,0,35,43.37a1.15,1.15,0,0,1-.84.76L29.82,45a1.12,1.12,0,0,0-.89,1.11l0,3.93a1.11,1.11,0,0,0,.89,1.08l4.53,1a1.1,1.1,0,0,1,.81.71c.13.33.27.67.43,1a1.13,1.13,0,0,1-.07,1.11l-2.51,3.81a1.12,1.12,0,0,0,.15,1.42L36,62.88A1.1,1.1,0,0,0,37.4,63l3.93-2.55a1.09,1.09,0,0,1,1.09-.07l.79.33a1.11,1.11,0,0,1,.73.84l.87,4.52a1.12,1.12,0,0,0,1.1.91h3.92a1.12,1.12,0,0,0,1.1-.88l1-4.5a1.17,1.17,0,0,1,.74-.82,9.63,9.63,0,0,0,1-.43,1.15,1.15,0,0,1,1.11.08L58.58,63A1.12,1.12,0,0,0,60,62.84l2.77-2.79a1.12,1.12,0,0,0,.15-1.39l-2.4-3.76a1.11,1.11,0,0,1-.05-1.1c.19-.42.37-.84.53-1.28A1.14,1.14,0,0,1,61.83,51.79Z"></path><circle class="cls-6" cx="47.96" cy="47.96" r="2.79"></circle><circle class="cls-5" cx="47.96" cy="47.96" r="7.43"></circle><rect class="cls-7" width="80" height="80"></rect></g></svg> 